Exact Audio Copy V0.99 prebeta 5 from 4. May 2009

Отчёт EAC об извлечении, выполненном 3. июня 2009, 11:23

Unknown Artist / Unknown Title

Дисковод: Optiarc DVD RW AD-7200S   Adapter: 2  ID: 0

Режим чтения                 : Достоверность
Использование точного потока : Да
Отключение кэша аудио        : Да
Использование указателей C2  : Нет

Коррекция смещения при чтении                     : 48
Способность читать области Lead-in и Lead-out     : Нет
Заполнение пропущенных сэмплов тишиной            : Да
Удаление блоков с тишиной в начале и конце        : Нет
При вычислениях CRC использовались нулевые сэмплы : Да
Интерфейс                                         : Установленный внешний ASPI-интерфейс

Выходной формат          : Monkey's Audio (без потерь)
Выбранный битрейт        : Normal Lossless Compression
Качество                 : Высокий
Добавление ID3-тэга      : Да
Утилита сжатия           : C:\Program Files\Exact Audio Copy\MAC.exe


TOC извлечённого CD

     Трек |   Старт  | Длительность | Начальный сектор | Конечный сектор 
    ---------------------------------------------------------------------
       1  |  0:00.33 |    2:44.25   |          33      |      12357      
       2  |  2:44.58 |    3:36.62   |       12358      |      28619      
       3  |  6:21.45 |    3:11.25   |       28620      |      42969      
       4  |  9:32.70 |    3:09.13   |       42970      |      57157      
       5  | 12:42.08 |    3:13.12   |       57158      |      71644      
       6  | 15:55.20 |    3:12.50   |       71645      |      86094      
       7  | 19:07.70 |    2:55.38   |       86095      |      99257      
       8  | 22:03.33 |    2:55.37   |       99258      |     112419      
       9  | 24:58.70 |    3:48.13   |      112420      |     129532      
      10  | 28:47.08 |    3:41.00   |      129533      |     146107      
      11  | 32:28.08 |    3:10.25   |      146108      |     160382      


Характеристики диапазона извлечения и сообщения об ошибках

Выбранный диапазон

     Имя файла D:\Music\RIPs\ABBA\ABBA - 1974 - Waterloo\ABBA - 1974 - Waterloo.wav

     Пиковый уровень 97.7 %
     Качество диапазона 100.0 %
     CRC теста 4199FFCA
     CRC копии 4199FFCA
     Копирование... OK

Ошибок не произошло

Конец отчёта
